<?xml version="1.0" encoding="UTF-8"?>
<svg width="35px" height="30px" viewBox="0 0 35 30" version="1.1" xmlns="http://www.w3.org/2000/svg" xmlns:xlink="http://www.w3.org/1999/xlink">
    <!-- Generator: Sketch 53.1 (72631) - https://sketchapp.com -->
    <title>“</title>
    <desc>Created with Sketch.</desc>
    <g id="Page-1" stroke="none" stroke-width="1" fill="none" fill-rule="evenodd">
        <g id="TESTIMONIAL,-CLOSING-CTA" transform="translate(-642.000000, -909.000000)" fill="#134DAB" fill-rule="nonzero">
            <g id="TESTIMONIAL-2" transform="translate(20.000000, 744.000000)">
                <g id="Group-7-Copy" transform="translate(617.000000, 135.000000)">
                    <path d="M5.12695312,49.6816406 C5.3222666,43.0409824 8.39840771,36.4980791 14.3554688,30.0527344 L17.4316406,32.25 C13.2324009,36.6445532 11.0839849,40.1601431 10.9863281,42.796875 C11.0839849,43.8710991 12.2070205,44.7011689 14.3554688,45.2871094 C14.648439,45.3847661 15.0390601,45.4824214 15.5273438,45.5800781 C18.6523594,46.751959 20.2148438,48.900375 20.2148438,52.0253906 C20.2148438,53.001958 20.0195332,53.9785107 19.6289062,54.9550781 C18.4570254,57.8847803 16.3086094,59.3496094 13.1835938,59.3496094 C12.4999966,59.3496094 11.767582,59.2519541 10.9863281,59.0566406 C7.08005859,58.0800732 5.12695312,54.9551045 5.12695312,49.6816406 Z M24.0234375,49.6816406 C24.218751,43.0409824 27.2948921,36.4980791 33.2519531,30.0527344 L36.328125,32.25 C32.1288853,36.6445532 29.9804692,40.1601431 29.8828125,42.796875 C29.9804692,43.8710991 31.1035049,44.7011689 33.2519531,45.2871094 C33.5449233,45.3847661 33.9355444,45.4824214 34.4238281,45.5800781 C37.5488438,46.751959 39.1113281,48.900375 39.1113281,52.0253906 C39.1113281,53.001958 38.9160176,53.9785107 38.5253906,54.9550781 C37.3535098,57.8847803 35.2050938,59.3496094 32.0800781,59.3496094 C31.396481,59.3496094 30.6640664,59.2519541 29.8828125,59.0566406 C25.976543,58.0800732 24.0234375,54.9551045 24.0234375,49.6816406 Z" id="“"></path>
                </g>
            </g>
        </g>
    </g>
</svg>