<?xml version="1.0" encoding="UTF-8"?>
<svg width="125px" height="18px" viewBox="0 0 125 18" version="1.1" xmlns="http://www.w3.org/2000/svg" xmlns:xlink="http://www.w3.org/1999/xlink">
    <!-- Generator: Sketch 53.1 (72631) - https://sketchapp.com -->
    <title>company1</title>
    <desc>Created with Sketch.</desc>
    <g id="Page-1" stroke="none" stroke-width="1" fill="none" fill-rule="evenodd">
        <g id="NAV,-HERO,-CLIENTS" transform="translate(-120.000000, -1957.000000)" fill="#FFFFFF" fill-rule="nonzero">
            <g id="COMPANIES-1" transform="translate(20.000000, 1844.000000)">
                <g id="HERO-CONTAINER" transform="translate(0.000000, -0.000000)">
                    <g id="Group-2" transform="translate(100.000000, 51.000000)">
                        <g id="COMPANY-LOGOS" transform="translate(0.000000, 46.500000)">
                            <path d="M63.4465118,21.4418775 C63.1306781,21.399507 62.8042377,21.3794987 62.4554064,21.3771447 C59.2511069,21.3771447 58.4568085,23.4438862 58.4568085,26.1544246 L58.4568085,32.5406086 L52.6822344,32.5406086 L52.6822344,16.7210917 L58.4556299,16.7210917 L58.4556299,19.3151111 L58.5204467,19.3151111 C59.628222,17.3684196 61.5338315,16.506885 63.784737,16.506885 L64.8984047,16.506885 L64.8984047,17.7756477 C64.0605024,18.7278082 63.5242918,19.9483155 63.4465118,21.4418775 Z M106.150585,21.3850254 L105.977398,21.3779641 C102.774026,21.3779641 101.977601,23.4445539 101.977601,26.1548934 L101.977601,32.5406086 L96.2023411,32.5406086 L96.2023411,16.7222529 L101.977601,16.7222529 L101.977601,19.3137282 L102.040042,19.3137282 C103.153388,17.3683564 105.05609,16.506885 107.307522,16.506885 L108.418511,16.506885 L108.418511,17.7426021 C107.407664,18.7417677 106.63009,19.9868998 106.150585,21.3850254 Z M74.0271989,21.0797454 C73.1681074,20.619178 71.9726521,20.312133 71.0215152,20.312133 C70.3828784,20.312133 69.2794685,20.586364 69.2794685,21.3867904 C69.2794685,22.4626196 71.0215152,22.6149702 71.7919701,22.7720084 C74.3874266,23.2923442 76.3510643,24.5216959 76.3510643,27.4351072 C76.3510643,31.5790422 72.586289,33.3041192 68.9419682,33.3041192 C66.7067394,33.3041192 64.5078741,32.6583873 62.6078728,31.4911477 L64.6271924,27.5886297 C65.757875,28.390228 67.6556035,29.1859666 69.0328773,29.1859666 C69.7374233,29.1859666 70.7771968,28.8496235 70.7771968,27.9894288 C70.7771968,26.761249 69.0328773,26.696793 67.2862853,26.2373975 C65.5442385,25.7768301 63.8021918,24.9189793 63.8021918,22.0934625 C63.8021918,18.2237585 67.2862853,16.506885 70.7203784,16.506885 C72.4953799,16.506885 74.2715173,16.782288 75.8897002,17.5194302 L74.0271989,21.0797454 Z M124.452235,32.7848829 L118.876673,32.7848829 L118.876673,31.0326071 L118.815228,31.0326071 C117.834384,32.5985205 115.900006,33.3041192 114.064622,33.3041192 C109.403907,33.3041192 106.127979,29.4034008 106.127979,24.8885068 C106.127979,20.3783012 109.345875,16.506885 114.002039,16.506885 C115.808976,16.506885 117.711494,17.1820094 118.875535,18.5627324 L118.875535,17.0308097 L124.449959,17.0308097 L124.452235,32.7848829 Z M111.889014,24.9224974 C111.889014,26.9173961 113.208943,28.4528351 115.473304,28.4528351 C117.739941,28.4528351 119.054181,26.9197403 119.054181,24.9224974 C119.054181,22.9873754 117.739941,21.3605133 115.473304,21.3605133 C113.208943,21.3616854 111.889014,22.9873754 111.889014,24.9224974 Z M95.4365219,25.8432403 L83.5281347,25.8432403 C83.5281347,28.1137387 84.7435588,29.3410034 87.0739877,29.3410034 C88.2859491,29.3410034 89.1550987,28.9436369 89.7783931,27.8980589 L95.2195232,27.8980589 C94.3180546,31.6150184 90.7421911,33.3041192 87.1063067,33.3041192 C81.8256174,33.3041192 77.8780856,30.3537606 77.8780856,24.9207404 C77.8780856,19.6694069 81.5105073,16.506885 86.7011653,16.506885 C92.2334809,16.506885 95.4388304,19.8862588 95.4388304,25.2583261 L95.4365219,25.8432403 Z M90.1823803,22.6162489 C89.9018978,21.1111792 88.5029479,20.1288985 86.9816479,20.1288985 C85.3322258,20.1288985 83.970212,20.9857567 83.6227831,22.6162489 L90.1823803,22.6162489 Z M34.3486831,24.2447095 C34.353331,24.3702763 34.3568169,24.4946804 34.357979,24.6179219 L34.357979,24.6841932 C34.3498452,26.910678 33.4772137,28.7918542 31.8690619,30.4393367 C30.1714392,32.1740183 27.8173095,33.186691 25.1761758,33.2971433 C24.997234,33.3041192 25.0320928,33.3041192 24.8601226,33.3041192 C23.3763006,33.3041192 22.0330755,32.987877 20.7979126,32.4600315 C20.2889744,32.239127 19.6510587,31.8833545 19.157226,31.5217687 C18.6645552,31.1590203 17.9453023,30.4335234 17.9453023,30.4335234 L20.2599254,26.1747172 C20.8141801,26.7502316 21.9377948,28.0384536 23.7028112,28.4058526 L23.7144307,28.401202 C24.1734047,28.502353 24.6602657,28.5360701 25.1610702,28.4930518 C27.5663261,28.2849365 29.3603916,26.367718 29.1675063,24.2098299 C28.9734591,22.0519418 26.8656647,20.4707306 24.4604088,20.6776832 C23.0265508,20.8009247 21.8099793,21.5322349 21.102346,22.5588594 L21.0942123,22.5716486 C20.7909409,23.0029937 20.5620349,23.413411 20.24482,23.9912507 L20.1379197,24.1842515 L20.0101042,24.4307344 L20.0101042,24.438873 C20.0101042,24.438873 17.8581553,28.4837506 17.1970005,29.595249 L17.1179872,29.7091892 L17.038974,29.8254547 L16.8693279,30.0382206 L16.4242974,30.5416503 C16.3057776,30.6660545 16.180286,30.7869706 16.0547944,30.9067241 L15.980429,30.977646 C15.7666284,31.1718095 15.5470181,31.3543463 15.3123023,31.5229314 L15.1170931,31.6566367 L15.0008972,31.7345346 C14.8440326,31.8438242 14.6860062,31.9461379 14.518684,32.0426383 C14.2107648,32.2158739 13.9098173,32.3716697 13.5995741,32.5042124 C12.3586015,33.0367085 10.9747078,33.3029565 9.47926608,33.3029565 C9.31194393,33.3029565 9.14462177,33.2983059 8.97497569,33.29133 C6.33151805,33.1808778 4.12960497,32.2461029 2.43663013,30.5114213 C0.814534783,28.8581256 -0.00116071973,26.8885876 1.23964745e-06,24.6493136 C1.23964745e-06,24.5156082 0.00348711777,24.3795775 0.00929691489,24.2423842 C0.0790144793,22.6414079 0.564713511,21.1497213 1.45477442,19.8056918 C2.34715925,18.4616624 3.55094919,17.4187606 5.0359333,16.702565 C6.36172899,16.0689179 7.81185431,15.7491877 9.37236581,15.7433744 L9.45254102,15.7433744 C9.59197613,15.744537 9.73489713,15.7468624 9.8766562,15.7526756 C10.0067956,15.7584889 10.139259,15.7747661 10.2693985,15.7829047 C10.2903137,15.78523 10.3135529,15.7875553 10.3344682,15.7910433 C11.1826985,15.8642905 12.0065278,16.0258996 12.7920123,16.2886597 C12.8826452,16.3177261 12.9697921,16.3502804 13.058101,16.3816721 C13.08715,16.3909734 13.116199,16.4025999 13.144086,16.4130638 C13.8830922,16.6909384 14.5535428,17.0327591 15.1473041,17.4303872 L12.6653588,21.88917 C11.8740644,21.1043777 10.8817511,20.702099 9.59546202,20.6532675 L9.34331682,20.6462916 C8.53343112,20.6462916 7.8269598,20.8148766 7.20647347,21.1532092 C7.17510058,21.1694864 7.14372768,21.1869262 7.11235476,21.2055287 C6.89042051,21.3380714 6.67778195,21.4868913 6.47443904,21.6624522 C5.63899023,22.3937624 5.22417072,23.2401754 5.17885432,24.3284207 C5.17885432,24.3435352 5.17769234,24.3598124 5.17653039,24.3784149 C5.15561512,25.0620562 5.30550788,25.7073298 5.64363807,26.3386516 C5.94342359,26.8955635 6.3442996,27.3420231 6.86718133,27.689657 C6.9310891,27.7326753 6.99732077,27.7745309 7.06587638,27.8152238 C7.70611602,28.1942494 8.4276928,28.3930634 9.26895143,28.4267804 C9.37120386,28.4325937 9.47113236,28.4372444 9.56873696,28.4372444 C10.9654122,28.4372444 12.0518442,27.9210254 13.0127846,26.8664971 C13.4438716,26.266567 13.8296421,25.5399075 14.1898495,24.8109227 L14.3711152,24.4435236 L14.4571002,24.2749386 L14.4547762,24.2726133 L16.0966249,20.9509072 C16.2151447,20.7451173 16.3394744,20.5393273 16.466128,20.3393506 C16.6532035,20.027759 16.9076726,19.6812877 17.1830569,19.346443 L17.1877048,19.3510936 L17.1888667,19.3534189 C17.3213301,19.1894845 17.4630892,19.0220622 17.61182,18.8546398 L17.8128389,18.6430366 L17.8511836,18.601181 L17.9301968,18.5232831 L17.9290349,18.5232831 L17.9278729,18.5232831 L18.096357,18.3442342 L18.2195247,18.223318 C18.3903328,18.0663596 18.5495212,17.923353 18.6959281,17.8070875 C19.415181,17.2280851 20.2947842,16.7455832 21.304527,16.3805095 C22.3061359,16.0119478 23.3716527,15.8026698 24.4731902,15.7526756 C24.6347027,15.7468624 24.7950531,15.744537 24.9484317,15.744537 C26.5170769,15.744537 27.9869555,16.0654299 29.317399,16.7014023 C30.2016501,17.1280968 30.9859726,17.6675688 31.663395,18.3198184 C32.1270169,18.7651154 32.5418363,19.2615692 32.9043676,19.8080171 C33.7165773,21.0334558 34.1953046,22.3902744 34.3231201,23.8401055 L34.3231201,23.8424308 L34.3231201,23.8447561 C34.3335778,23.9784615 34.3428734,24.1098415 34.3486831,24.2447095 Z M43.0916875,32.5406086 C41.8865917,32.5406086 40.7934894,32.402168 39.8123802,32.1252869 C38.8312713,31.8484058 37.9936541,31.4111644 37.2995281,30.8112553 C36.603069,30.2113462 36.066434,29.4476158 35.6884564,28.5212178 C35.3104784,27.5948198 35.1214896,26.4780659 35.1214896,25.1767247 L35.1214896,16.506885 L40.6359986,16.506885 L40.6359986,25.1075045 C40.6359986,26.0823567 40.8716513,26.7884035 41.3417903,27.229106 C41.813096,27.6709621 42.4115608,27.8913133 43.1371849,27.8913133 C43.8791411,27.8913133 44.4811058,27.6859598 44.9454118,27.2740991 C45.4073846,26.8622385 45.6407041,26.1792651 45.6407041,25.2194106 L45.6407041,16.506885 L51.1552131,16.506885 L51.1552131,25.0625113 C51.1552131,26.4099993 50.9615581,27.5555949 50.5754139,28.4981444 C50.1892701,29.4418475 49.6444687,30.2124999 48.9433434,30.812409 C48.2387182,31.412318 47.3906013,31.8484058 46.39316,32.1264405 C45.3957187,32.402168 44.2956167,32.5406086 43.0916875,32.5406086 Z" id="company1"></path>
                        </g>
                    </g>
                </g>
            </g>
        </g>
    </g>
</svg>