<?xml version="1.0" encoding="UTF-8"?>
<svg width="143px" height="21px" viewBox="0 0 143 21" version="1.1" xmlns="http://www.w3.org/2000/svg" xmlns:xlink="http://www.w3.org/1999/xlink">
    <!-- Generator: Sketch 53.1 (72631) - https://sketchapp.com -->
    <title>company_color1</title>
    <desc>Created with Sketch.</desc>
    <g id="Page-1" stroke="none" stroke-width="1" fill="none" fill-rule="evenodd">
        <g id="NAV,-HERO,-CLIENTS" transform="translate(-120.000000, -2399.000000)" fill="#717172" fill-rule="nonzero">
            <g id="COMPANIES-2" transform="translate(20.000000, 2074.000000)">
                <g id="HERO-CONTAINER" transform="translate(0.000000, -0.000000)">
                    <g id="Group-3" transform="translate(100.000000, 76.500000)">
                        <g id="COMPANY-LOGOS" transform="translate(0.000000, 236.000000)">
                            <path d="M72.8294467,19.6876023 C72.4669051,19.6389657 72.0921884,19.6159984 71.6917693,19.6132964 C68.0135945,19.6132964 67.1018295,21.9856827 67.1018295,25.0970754 L67.1018295,32.427695 L60.4732691,32.427695 L60.4732691,14.2686722 L67.1004766,14.2686722 L67.1004766,17.2463142 L67.1748789,17.2463142 C68.4464802,15.0117317 70.6339052,14.022787 73.217691,14.022787 L74.4960561,14.022787 L74.4960561,15.4791836 C73.5342386,16.5721566 72.9187293,17.9731615 72.8294467,19.6876023 Z M121.848911,19.6223425 L121.650112,19.614237 C117.973001,19.614237 117.058795,21.9864491 117.058795,25.0976135 L117.058795,32.427695 L110.429448,32.427695 L110.429448,14.270005 L117.058795,14.270005 L117.058795,17.2447267 L117.130471,17.2447267 C118.408466,15.0116591 120.592554,14.022787 123.176945,14.022787 L124.452235,14.022787 L124.452235,15.441251 C123.291896,16.5881805 122.399328,18.0174518 121.848911,19.6223425 Z M84.9748833,19.2719155 C83.988743,18.743236 82.616495,18.390783 81.524697,18.390783 C80.7916139,18.390783 79.5250236,18.7055692 79.5250236,19.6243685 C79.5250236,20.8592993 81.524697,21.0341806 82.4090925,21.2144428 C85.3883841,21.8117296 87.6424189,23.2228868 87.6424189,26.5671548 C87.6424189,31.3239252 83.320881,33.3041192 79.1376114,33.3041192 C76.5718205,33.3041192 74.0477709,32.5628917 71.8667835,31.2230322 L74.1847349,26.7433812 C75.4826311,27.6635258 77.6610097,28.5769441 79.2419648,28.5769441 C80.0507042,28.5769441 81.244247,28.19086 81.244247,27.2034535 C81.244247,25.7936415 79.2419648,25.7196532 77.2370739,25.1923189 C75.2374006,24.6636394 73.2377272,23.6789234 73.2377272,20.4355485 C73.2377272,15.9935644 77.2370739,14.022787 81.1790259,14.022787 C83.2165276,14.022787 85.2553333,14.3389185 87.1128249,15.1850748 L84.9748833,19.2719155 Z M142.857143,32.7080945 L136.457026,32.7080945 L136.457026,30.6966793 L136.386494,30.6966793 C135.260596,32.4941714 133.040147,33.3041192 130.933333,33.3041192 C125.583358,33.3041192 121.822962,28.826534 121.822962,23.6439444 C121.822962,18.4667365 125.516744,14.022787 130.861495,14.022787 C132.935655,14.022787 135.119532,14.7977537 136.45572,16.3826682 L136.45572,14.6241935 L142.854531,14.6241935 L142.857143,32.7080945 Z M128.435981,23.6829618 C128.435981,25.9728807 129.951111,27.7353917 132.550342,27.7353917 C135.152186,27.7353917 136.660785,25.9755715 136.660785,23.6829618 C136.660785,21.4616598 135.152186,19.5942054 132.550342,19.5942054 C129.951111,19.5955508 128.435981,21.4616598 128.435981,23.6829618 Z M109.550374,24.7398708 L95.880887,24.7398708 C95.880887,27.3461472 97.2760569,28.7549089 99.9511268,28.7549089 C101.342322,28.7549089 102.340008,28.2987769 103.055479,27.0985711 L109.301284,27.0985711 C108.266499,31.3652218 104.161811,33.3041192 99.9882253,33.3041192 C93.926589,33.3041192 89.3952673,29.91744 89.3952673,23.6809449 C89.3952673,17.6530058 93.5648781,14.022787 99.5231686,14.022787 C105.873644,14.022787 109.553024,17.9019273 109.553024,24.0684553 L109.550374,24.7398708 Z M103.519211,21.0356484 C103.197249,19.307998 101.591412,18.1804504 99.845131,18.1804504 C97.9517804,18.1804504 96.3883419,19.1640271 95.9895328,21.0356484 L103.519211,21.0356484 Z M39.428418,22.9049377 C39.4337532,23.0490742 39.4377546,23.1918761 39.4390885,23.3333434 L39.4390885,23.4094154 C39.4297519,25.9651691 38.4280692,28.1245474 36.5820922,30.0156717 C34.6334126,32.0068907 31.931137,33.1693249 28.899413,33.2961116 C28.694008,33.3041192 28.734022,33.3041192 28.5366196,33.3041192 C26.8333591,33.3041192 25.2914881,32.9411088 23.8736603,32.3352016 C23.2894566,32.0816282 22.5572012,31.6732414 21.9903368,31.2581817 C21.4248063,30.8417873 20.599185,30.0089987 20.599185,30.0089987 L23.2561116,25.1203691 C23.8923335,25.7809947 25.1821166,27.2597284 27.2081565,27.6814611 L27.2214944,27.6761227 C27.7483448,27.7922327 28.3072064,27.830936 28.8820735,27.7815559 C31.6430363,27.542663 33.7024213,25.3419122 33.4810107,22.8648998 C33.2582665,20.3878873 30.838756,18.5728351 28.0777932,18.8103934 C26.4318858,18.9518607 25.0353988,19.7913224 24.2231155,20.9697717 L24.2137789,20.9844523 C23.8656575,21.4795879 23.6028992,21.9507007 23.2387722,22.6139955 L23.1160627,22.8355386 L22.9693449,23.1184732 L22.9693449,23.1278154 C22.9693449,23.1278154 20.4991502,27.7708792 19.7402188,29.0467541 L19.6495205,29.1775446 L19.5588222,29.3110043 L19.3640876,29.5552356 L18.8532428,30.1331162 C18.7171954,30.2759181 18.5731452,30.4147162 18.4290949,30.5521797 L18.3437318,30.6335902 C18.0983129,30.8564679 17.846225,31.0659997 17.5767977,31.2595163 L17.3527196,31.4129949 L17.2193397,31.502413 C17.0392769,31.6278651 16.8578803,31.7453096 16.6658133,31.8560812 C16.3123567,32.0549362 15.9669029,32.2337722 15.6107788,32.3859163 C14.186282,32.9971618 12.597728,33.3027846 10.8811294,33.3027846 C10.6890624,33.3027846 10.4969954,33.2974462 10.3022608,33.2894386 C7.26786931,33.1626519 4.7403212,32.0896357 2.79697683,30.0984167 C0.934994152,28.2006194 -0.00133237546,25.9398118 1.42297559e-06,23.3693775 C1.42297559e-06,23.2158989 0.00400281829,23.059751 0.0106718108,22.9022685 C0.0906997192,21.0645281 0.648227481,19.3522399 1.66991711,17.8094455 C2.69427435,16.2666511 4.07608956,15.0695174 5.78068399,14.2474055 C7.30254806,13.5200501 8.96712854,13.1530358 10.7584199,13.1463628 L10.850452,13.1463628 C11.0105078,13.1476974 11.174565,13.1503666 11.3372885,13.1570396 C11.4866739,13.1637126 11.6387269,13.182397 11.7881123,13.1917391 C11.8121207,13.1944083 11.8387967,13.1970775 11.862805,13.2010813 C12.8364779,13.285161 13.782141,13.47067 14.6837888,13.7722889 C14.7878251,13.8056539 14.88786,13.8430226 14.9892287,13.8790567 C15.0225736,13.8897335 15.0559186,13.9030795 15.0879297,13.9150908 C15.9362256,14.2340596 16.7058273,14.6264312 17.3873983,15.0828634 L14.5384048,20.2010437 C13.630088,19.3001906 12.4910241,18.83842 11.0145092,18.7823669 L10.7250749,18.7743593 C9.79541741,18.7743593 8.98446794,18.9678759 8.27221955,19.3562437 C8.236207,19.3749281 8.20019445,19.394947 8.16418187,19.4163006 C7.90942636,19.5684446 7.66534125,19.7392731 7.43192651,19.9407973 C6.47292541,20.7802589 5.99675935,21.7518457 5.94474122,23.0010287 C5.94474122,23.0183785 5.9434074,23.0370628 5.94207361,23.0584164 C5.91806524,23.8431595 6.09012524,24.583861 6.4782606,25.3085473 C6.8223806,25.9478193 7.28254109,26.4603047 7.8827504,26.8593492 C7.95610932,26.9087293 8.03213582,26.9567748 8.11082993,27.0034858 C8.8457529,27.4385644 9.67404174,27.6667805 10.6397119,27.7054839 C10.7570861,27.7121569 10.8717928,27.7174953 10.9838319,27.7174953 C12.5870576,27.7174953 13.8341592,27.1249341 14.9372105,25.9144544 C15.4320497,25.2258022 15.8748708,24.391679 16.2883484,23.5548865 L16.4964209,23.1331538 L16.595122,22.9396372 L16.5924544,22.936968 L18.4771117,19.1240238 C18.6131591,18.8878001 18.7558755,18.6515764 18.9012596,18.4220256 C19.1160011,18.0643536 19.408103,17.6666436 19.7242132,17.2822796 L19.7295484,17.287618 L19.7308822,17.2902872 C19.8829353,17.102109 20.0456587,16.909927 20.2163849,16.717745 L20.447132,16.4748483 L20.4911474,16.4268028 L20.5818457,16.3373848 L20.5805119,16.3373848 L20.5791781,16.3373848 L20.7725789,16.1318568 L20.9139615,15.9930587 C21.1100298,15.8128881 21.2927602,15.6487326 21.4608189,15.5152729 C22.2864401,14.8506435 23.2961256,14.2967856 24.4551964,13.8777221 C25.6049307,13.4546548 26.8280239,13.2144273 28.0924648,13.1570396 C28.277863,13.1503666 28.4619272,13.1476974 28.6379885,13.1476974 C30.4386165,13.1476974 32.1258715,13.5160463 33.6530707,14.2460709 C34.6680913,14.7358681 35.5684052,15.3551212 36.3460097,16.1038303 C36.8781955,16.614981 37.3543614,17.184854 37.7705064,17.8121147 C38.7028317,19.2187802 39.2523567,20.7762551 39.3990745,22.4404979 L39.3990745,22.4431671 L39.3990745,22.4458362 C39.4110787,22.5993149 39.421749,22.7501244 39.428418,22.9049377 Z M49.4644018,32.427695 C48.0810877,32.427695 46.8263294,32.2687808 45.7001266,31.9509525 C44.5739241,31.6331242 43.6124339,31.1312203 42.8156554,30.4425923 C42.0161989,29.7539643 41.4002024,28.8772879 40.9663267,27.8138873 C40.5324506,26.7504867 40.3155127,25.4685792 40.3155127,23.9747861 L40.3155127,14.022787 L46.6455477,14.022787 L46.6455477,23.895329 C46.6455477,25.0143496 46.9160505,25.8248118 47.455717,26.3306885 C47.9967229,26.8378895 48.683693,27.0908279 49.5166277,27.0908279 C50.3683098,27.0908279 51.0592975,26.8551052 51.5922685,26.3823356 C52.1225612,25.909566 52.3903857,25.1255895 52.3903857,24.0237846 L52.3903857,14.022787 L58.7204207,14.022787 L58.7204207,23.8436819 C58.7204207,25.3904464 58.4981265,26.7054611 58.0548766,27.7874016 C57.6116269,28.8706664 56.9862563,29.7552886 56.1814435,30.4439166 C55.3726131,31.1325446 54.3990705,31.6331242 53.2541203,31.9522768 C52.1091701,32.2687808 50.8463769,32.427695 49.4644018,32.427695 Z" id="company_color1"></path>
                        </g>
                    </g>
                </g>
            </g>
        </g>
    </g>
</svg>