<?xml version="1.0" encoding="UTF-8"?>
<svg width="97px" height="40px" viewBox="0 0 97 40" version="1.1" xmlns="http://www.w3.org/2000/svg" xmlns:xlink="http://www.w3.org/1999/xlink">
    <!-- Generator: Sketch 53.1 (72631) - https://sketchapp.com -->
    <title>company2</title>
    <desc>Created with Sketch.</desc>
    <g id="Page-1" stroke="none" stroke-width="1" fill="none" fill-rule="evenodd">
        <g id="NAV,-HERO,-CLIENTS" transform="translate(-366.000000, -1945.000000)" fill="#FFFFFF" fill-rule="nonzero">
            <g id="COMPANIES-1" transform="translate(20.000000, 1844.000000)">
                <g id="HERO-CONTAINER" transform="translate(0.000000, -0.000000)">
                    <g id="Group-2" transform="translate(100.000000, 51.000000)">
                        <g id="COMPANY-LOGOS" transform="translate(0.000000, 46.500000)">
                            <path d="M246.056091,4.38212095 L246.056091,7.02048203 L264.821497,7.02048203 L264.821497,4.38212095 L246.056091,4.38212095 Z M267.480213,4.38212095 L267.480213,7.02048203 L294.221762,7.02048203 C294.221762,7.02048203 291.490261,4.38212095 287.87248,4.38212095 L267.480213,4.38212095 Z M299.467641,4.38212095 L299.467641,7.02048203 L315.645884,7.02048203 L314.685583,4.38212095 L299.467641,4.38212095 Z M327.24481,4.38212095 L326.284509,7.02048203 L342.315882,7.02048203 L342.315882,4.38212095 L327.24481,4.38212095 Z M246.056091,9.51309649 L246.056091,12.1514568 L264.821497,12.1514568 L264.821497,9.51309649 L246.056091,9.51309649 Z M267.480213,9.5168337 L267.480213,12.1514568 L297.324853,12.1514568 C297.324853,12.1514568 296.976282,10.120861 296.368317,9.5168337 L267.480213,9.5168337 Z M299.467641,9.5168337 L299.467641,12.1514568 L317.419616,12.1514568 L316.530866,9.5168337 L299.467641,9.5168337 Z M325.324208,9.5168337 L324.435459,12.1514568 L342.315882,12.1514568 L342.315882,9.5168337 L325.324208,9.5168337 Z M251.448838,14.644072 L251.448838,17.2861689 L259.575618,17.2861689 L259.575618,14.644072 L251.448838,14.644072 Z M272.87296,14.644072 L272.87296,17.2861689 L280.999739,17.2861689 L280.999739,14.644072 L272.87296,14.644072 Z M288.904333,14.644072 L288.904333,17.2861689 L297.031113,17.2861689 C297.031114,17.2861689 297.547039,15.8908734 297.547039,14.644072 L288.904333,14.644072 Z M304.860389,14.644072 L304.860389,17.2861689 L319.268666,17.2861689 L318.308365,14.644072 L304.860389,14.644072 Z M323.554243,14.644072 L322.590176,17.2861689 L337.070004,17.2861689 L337.070004,14.644072 L323.554243,14.644072 Z M251.448838,19.7787853 L251.448838,22.4171444 L259.575618,22.4171444 L259.575618,19.7787853 L251.448838,19.7787853 Z M272.87296,19.7787853 L272.87296,22.4171444 L293.630519,22.4171444 C293.63052,22.4171435 295.366923,21.0633751 295.920177,19.7787853 L272.87296,19.7787853 Z M304.860389,19.7787853 L304.860389,22.4171444 L312.987168,22.4171444 L312.987168,20.9484825 L313.503094,22.4171444 L328.389639,22.4171444 L328.943225,20.9484825 L328.943225,22.4171444 L337.070004,22.4171444 L337.070004,19.7787853 L321.814403,19.7787853 L321.004738,22.0135428 L320.191308,19.7787853 L304.860389,19.7787853 Z M251.448838,24.9097608 L251.448838,27.54812 L259.575618,27.54812 L259.575618,24.9097608 L251.448838,24.9097608 Z M272.87296,24.9097608 L272.87296,27.54812 L295.920177,27.54812 C295.366803,26.2677162 293.630519,24.9097608 293.630519,24.9097608 L272.87296,24.9097608 Z M304.860389,24.9097608 L304.860389,27.54812 L312.987168,27.54812 L312.987168,24.9097608 L304.860389,24.9097608 Z M314.463395,24.9097608 L315.446292,27.54812 L326.608376,27.54812 L327.542315,24.9097608 L314.463395,24.9097608 Z M328.943225,24.9097608 L328.943225,27.54812 L337.070004,27.54812 L337.070004,24.9097608 L328.943225,24.9097608 Z M251.448838,30.0407364 L251.448838,32.6790956 L259.575618,32.6790956 L259.575618,30.0407364 L251.448838,30.0407364 Z M272.87296,30.0407364 L272.87296,32.6790956 L280.999739,32.6790956 L280.999739,30.0407364 L272.87296,30.0407364 Z M288.904333,30.0407364 L288.904333,32.6790956 L297.547039,32.6790956 C297.547041,31.4339718 297.031113,30.0407364 297.031113,30.0407364 L288.904333,30.0407364 Z M304.860389,30.0407364 L304.860389,32.6790956 L312.987168,32.6790956 L312.987168,30.0407364 L304.860389,30.0407364 Z M316.308679,30.0407364 L317.261448,32.6790956 L324.744261,32.6790956 L325.704562,30.0407364 L316.308679,30.0407364 Z M328.943225,30.0407364 L328.943225,32.6790956 L337.070004,32.6790956 L337.070004,30.0407364 L328.943225,30.0407364 Z M246.20296,35.1717119 L246.20296,37.8138087 L264.968366,37.8138087 L264.968366,35.1717119 L246.20296,35.1717119 Z M267.480213,35.1717119 L267.480213,37.8138087 L296.368317,37.8138087 C296.976282,37.2088251 297.324853,35.1717119 297.324853,35.1717119 L267.480213,35.1717119 Z M299.61451,35.1717119 L299.61451,37.8138087 L312.987168,37.8138087 L312.987168,35.1717119 L299.61451,35.1717119 Z M318.157728,35.1717119 L319.136859,37.8138087 L322.944169,37.8138087 L323.863045,35.1717119 L318.157728,35.1717119 Z M328.943225,35.1717119 L328.943225,37.8138087 L342.462752,37.8138087 L342.462752,35.1717119 L328.943225,35.1717119 Z M246.20296,40.3064242 L246.20296,42.9447853 L264.968366,42.9447853 L264.968366,40.3064242 L246.20296,40.3064242 Z M267.480213,40.3064242 L267.480213,42.9410486 L287.87248,42.9410486 C291.49026,42.9410467 294.221762,40.3064242 294.221762,40.3064242 L267.480213,40.3064242 Z M299.61451,40.3064242 L299.61451,42.9447853 L312.987168,42.9447853 L312.987168,40.3064242 L299.61451,40.3064242 Z M320.014311,40.3064242 L320.955782,42.93731 L321.117715,42.9410486 L322.07425,40.3064242 L320.014311,40.3064242 Z M328.943225,40.3064242 L328.943225,42.9447853 L342.462752,42.9447853 L342.462752,40.3064242 L328.943225,40.3064242 Z" id="company2"></path>
                        </g>
                    </g>
                </g>
            </g>
        </g>
    </g>
</svg>