<?xml version="1.0" encoding="UTF-8"?>
<svg width="113px" height="32px" viewBox="0 0 113 32" version="1.1" xmlns="http://www.w3.org/2000/svg" xmlns:xlink="http://www.w3.org/1999/xlink">
    <!-- Generator: Sketch 53.1 (72631) - https://sketchapp.com -->
    <title>company3</title>
    <desc>Created with Sketch.</desc>
    <g id="Page-1" stroke="none" stroke-width="1" fill="none" fill-rule="evenodd">
        <g id="NAV,-HERO,-CLIENTS" transform="translate(-565.000000, -1949.000000)" fill="#FFFFFF" fill-rule="nonzero">
            <g id="COMPANIES-1" transform="translate(20.000000, 1844.000000)">
                <g id="HERO-CONTAINER" transform="translate(0.000000, -0.000000)">
                    <g id="Group-2" transform="translate(100.000000, 51.000000)">
                        <g id="COMPANY-LOGOS" transform="translate(0.000000, 46.500000)">
                            <path d="M520.301749,7.8878177 L520.301749,30.2319678 C523.00973,30.3601903 525.710825,30.515194 528.404271,30.6980688 L528.404271,35.4352958 C524.146469,35.1464563 519.870767,34.9259713 515.577318,34.7756232 L515.577318,7.8878177 L520.301749,7.8878177 Z M557.843996,7.89046482 L551.692138,22.4057415 L557.842466,38.5585105 L557.835582,38.5615822 C556.044031,38.3014469 554.250185,38.0558777 552.450985,37.8204683 L548.997162,28.7545827 L545.510446,36.9788864 C543.858119,36.7932011 542.203497,36.6175199 540.54505,36.4528704 L546.542385,22.3086874 L541.049928,7.89046482 L546.160667,7.89046482 L549.235832,15.959064 L552.655231,7.89046482 L557.843996,7.89046482 Z M499.363094,34.540821 L499.362941,7.89037916 L512.550958,7.89037916 L512.550958,12.6701911 L504.087372,12.6701911 L504.087372,18.8650444 L510.49121,18.8650444 L510.49121,23.6022713 L504.087372,23.6022713 L504.087372,34.5397232 L499.363094,34.540821 Z M481.722208,12.6705881 L481.722055,7.89013 L496.33444,7.89013 L496.33444,12.6702535 L491.39031,12.6702535 L491.39031,34.6704994 C489.813409,34.7125004 488.23819,34.7622793 486.666184,34.8226457 L486.666184,12.6705881 L481.722208,12.6705881 Z M465.571476,36.1998507 L465.571476,7.89093192 L478.693707,7.89093192 L478.693707,12.6707438 L470.295142,12.6707438 L470.295142,19.1453978 C472.224617,19.1202516 474.968015,19.0917577 476.674808,19.0959617 L476.674808,23.8335779 C474.538333,23.8065632 472.126701,23.8633953 470.295142,23.8820019 L470.295142,31.0540555 C473.086504,30.83062 475.88628,30.6351331 478.693707,30.4700865 L478.693707,35.2077804 C474.299741,35.46537 469.925511,35.7972149 465.571476,36.1998507 Z M456.30391,25.2483855 L456.303604,7.89015342 L461.028036,7.89015342 L461.028036,36.6464107 C459.300971,36.8272303 457.577197,37.0196109 455.856405,37.222727 L450.385826,21.227998 L450.385826,37.9078264 C448.808006,38.1169605 447.2334,38.3350089 445.6617,38.5626643 L445.6617,7.89046482 L450.15144,7.89046482 L456.30391,25.2483855 Z M532.301774,35.7210598 L532.301774,35.721091 L532.301774,7.89049583 L537.026206,7.89049583 L537.026206,36.1181371 C535.453435,35.9756598 533.879135,35.8438873 532.301774,35.7210598 Z" id="company3"></path>
                        </g>
                    </g>
                </g>
            </g>
        </g>
    </g>
</svg>