<?xml version="1.0" encoding="UTF-8"?>
<svg width="112px" height="47px" viewBox="0 0 112 47" version="1.1" xmlns="http://www.w3.org/2000/svg" xmlns:xlink="http://www.w3.org/1999/xlink">
    <!-- Generator: Sketch 53.1 (72631) - https://sketchapp.com -->
    <title>company5</title>
    <desc>Created with Sketch.</desc>
    <g id="Page-1" stroke="none" stroke-width="1" fill="none" fill-rule="evenodd">
        <g id="NAV,-HERO,-CLIENTS" transform="translate(-1008.000000, -1941.000000)" fill="#FFFFFF" fill-rule="nonzero">
            <g id="COMPANIES-1" transform="translate(20.000000, 1844.000000)">
                <g id="HERO-CONTAINER" transform="translate(0.000000, -0.000000)">
                    <g id="Group-2" transform="translate(100.000000, 51.000000)">
                        <g id="COMPANY-LOGOS" transform="translate(0.000000, 46.500000)">
                            <path d="M896.516457,18.2018911 C896.516457,16.9925662 897.505843,16.5274412 899.144513,16.5274412 C901.494303,16.5274412 904.46246,17.2406329 906.81225,18.5119745 L906.81225,11.2250163 C904.246032,10.2017414 901.710731,9.79863305 899.144513,9.79863305 C892.868098,9.79863305 888.694128,13.0855163 888.694128,18.5739911 C888.694128,27.1322908 900.443081,25.7679243 900.443081,29.4579158 C900.443081,30.884299 899.206349,31.3494242 897.474925,31.3494242 C894.908706,31.3494242 891.631366,30.2951408 889.034229,28.8687575 L889.034229,36.2487407 C891.909631,37.489074 894.815951,38.0162155 897.474925,38.0162155 C903.90593,38.0162155 908.327247,34.8223574 908.327247,29.2718659 C908.296329,20.0313828 896.516457,21.6748244 896.516457,18.2018911 Z M917.417227,3.59696657 L909.873162,5.20939984 L909.842244,30.0470741 C909.842244,34.6363073 913.274175,38.0162155 917.850083,38.0162155 C920.385383,38.0162155 922.240481,37.5510906 923.260785,36.9929406 L923.260785,30.6982491 C922.271399,31.1013575 917.386308,32.5277407 917.386308,27.9385075 L917.386308,16.9305495 L923.260785,16.9305495 L923.260785,10.3257747 L917.386308,10.3257747 L917.417227,3.59696657 Z M932.876376,12.6203913 L932.381683,10.3257747 L925.70333,10.3257747 L925.70333,37.4580655 L933.432905,37.4580655 L933.432905,19.0701245 C935.257085,16.6824829 938.348914,17.1165995 939.307381,17.4576912 L939.307381,10.3257747 C938.317996,9.95367471 934.700555,9.27149139 932.876376,12.6203913 Z M941.193398,10.3257747 L948.95389,10.3257747 L948.95389,37.4580655 L941.193398,37.4580655 L941.193398,10.3257747 Z M941.193398,7.96914144 L948.95389,6.29469148 L948.95389,0 L941.193398,1.64344162 L941.193398,7.96914144 Z M965.093242,9.79863305 C962.063249,9.79863305 960.115396,11.2250163 959.033256,12.217283 L958.631318,10.2947664 L951.829292,10.2947664 L951.829292,46.450482 L959.558866,44.8070404 L959.589785,36.0316823 C960.702844,36.8378989 962.341513,37.9852072 965.062324,37.9852072 C970.596699,37.9852072 975.636381,33.5200073 975.636381,23.690366 C975.605463,14.6979496 970.503944,9.79863305 965.093242,9.79863305 Z M963.238144,31.163374 C961.413964,31.163374 960.331824,30.5121992 959.589785,29.7059825 L959.558866,18.2018911 C960.362742,17.3026495 961.475801,16.6824829 963.238144,16.6824829 C966.051709,16.6824829 967.999562,19.8453328 967.999562,23.9074242 C967.999562,28.0625408 966.082627,31.163374 963.238144,31.163374 Z M1000,24.0004493 C1000,16.0623162 996.166131,9.79863305 988.838495,9.79863305 C981.47994,9.79863305 977.027705,16.0623162 977.027705,23.9384327 C977.027705,33.2719406 982.283815,37.9852072 989.82788,37.9852072 C993.507157,37.9852072 996.289804,37.1479822 998.392248,35.9696657 L998.392248,29.7679991 C996.289804,30.8222825 993.878177,31.4734575 990.817266,31.4734575 C987.818191,31.4734575 985.159217,30.4191741 984.819116,26.760191 L999.938164,26.760191 C999.938164,26.3570826 1000,24.7446492 1000,24.0004493 Z M984.726361,21.0546577 C984.726361,17.5507162 986.859724,16.0933245 988.807576,16.0933245 C990.693592,16.0933245 992.703282,17.5507162 992.703282,21.0546577 L984.726361,21.0546577 L984.726361,21.0546577 Z" id="company5"></path>
                        </g>
                    </g>
                </g>
            </g>
        </g>
    </g>
</svg>