<?xml version="1.0" encoding="UTF-8"?>
<svg width="125px" height="26px" viewBox="0 0 125 26" version="1.1" xmlns="http://www.w3.org/2000/svg" xmlns:xlink="http://www.w3.org/1999/xlink">
    <!-- Generator: Sketch 53.1 (72631) - https://sketchapp.com -->
    <title>company_color4</title>
    <desc>Created with Sketch.</desc>
    <g id="Page-1" stroke="none" stroke-width="1" fill="none" fill-rule="evenodd">
        <g id="NAV,-HERO,-CLIENTS" transform="translate(-781.000000, -2397.000000)" fill="#303D4D" fill-rule="nonzero">
            <g id="COMPANIES-2" transform="translate(20.000000, 2074.000000)">
                <g id="HERO-CONTAINER" transform="translate(0.000000, -0.000000)">
                    <g id="Group-3" transform="translate(100.000000, 76.500000)">
                        <g id="COMPANY-LOGOS" transform="translate(0.000000, 236.000000)">
                            <path d="M672.41792,31.4006666 C670.376007,31.4528021 669.98087,30.0166647 669.963535,28.9735154 L669.963535,21.7402546 L674.722517,21.7402546 L674.722517,17.5479425 L669.982647,17.5479425 L669.982647,11.3170863 L666.245511,11.3170863 C666.184174,11.3170863 666.077056,11.3692218 666.061944,11.5010941 C665.842818,13.4200331 664.911645,16.7882529 661.042945,18.1337008 L661.042945,21.7402546 L663.988029,21.7402546 L663.988029,29.3546745 C663.988029,32.1077824 665.729922,36.0188254 671.285845,35.9268214 C673.160635,35.8961535 675.24344,35.1386546 675.704359,34.4854267 L674.477167,30.9761341 C674.002469,31.1934387 673.095742,31.3835801 672.41792,31.4006666 L672.41792,31.4006666 Z M695.20076,30.9546666 L695.20076,17.5483806 L686.843319,17.5483806 L686.843319,21.4848342 L688.453647,21.4852723 C688.98346,21.4852723 689.206142,21.707396 689.213253,22.1941406 L689.204808,28.3093347 C689.204808,28.9086746 688.766113,31.1597039 685.721467,31.2166587 C683.646663,31.2556508 683.210189,30.0495232 683.210189,28.467932 L683.210189,17.5483806 L677.056004,17.5483806 L677.056004,28.7798691 C677.056004,31.6219141 678.372536,36.0928668 684.516498,35.9290119 C686.53352,35.874686 688.84434,34.87491 690.045308,33.4085427 L690.095534,35.6665818 L696.953321,35.6665818 L696.953321,31.8155604 C696.953321,31.8155604 696.398618,31.7730634 695.983479,31.7459003 C695.498558,31.7147942 695.20076,31.4576214 695.20076,30.9546666 L695.20076,30.9546666 Z M730.867565,30.9169888 C730.867565,30.9169888 730.868009,26.4438457 730.868009,25.4208496 C730.868009,23.4616042 730.844008,21.4375179 729.52881,19.7853903 C728.324286,18.273021 726.325042,17.1637166 723.290175,17.3078561 C721.27493,17.403803 719.12501,18.326909 717.938265,19.9080622 L717.751142,20.1407007 L717.637356,20.0057616 C716.417275,18.269078 714.469147,17.1637166 711.434724,17.3078561 C709.41859,17.403803 707.26867,18.326909 706.081925,19.9080622 L705.903691,17.5475044 L698.467199,17.5475044 L698.467199,21.4848342 L700.178423,21.5098067 C700.707792,21.5098067 700.931362,21.7319304 700.938474,22.218675 L700.938918,29.9237845 L700.938918,30.9169888 C700.938918,31.4199436 700.638898,31.6950791 700.154422,31.7261852 C699.739283,31.7533482 698.898338,31.8124936 698.898338,31.8124936 L698.898338,35.663515 L708.955004,35.6665818 L708.955004,31.8124936 C708.955004,31.8124936 708.162507,31.7572913 707.698921,31.7261852 C707.214,31.6937648 706.914869,31.4199436 706.914869,30.9169888 C706.914869,30.9169888 706.92287,25.9987219 706.92287,25.0142799 C706.92287,24.0302761 707.748702,22.0118852 710.370209,22.0118852 C712.485015,22.0118852 712.918377,23.2824156 712.918377,24.760612 C712.918377,26.2388083 712.9206,30.9174269 712.9206,30.9174269 C712.9206,31.4208198 712.621024,31.6950791 712.136548,31.7266233 C711.721409,31.7542245 710.880465,31.8133699 710.880465,31.8133699 L710.880465,35.663515 L720.926463,35.663515 L720.926463,31.8124936 C720.926463,31.8124936 720.133966,31.7572913 719.669935,31.7261852 C719.185459,31.6937648 718.890328,31.4199436 718.890328,30.9169888 L718.875216,30.9169888 C718.875216,30.9169888 718.883661,25.9987219 718.883661,25.0142799 C718.883661,24.0302761 719.620154,22.0118852 722.242105,22.0118852 C724.356468,22.0118852 724.885836,23.2824156 724.885836,24.760612 L724.885836,29.9237845 L724.884947,30.9174269 C724.884947,31.4208198 724.584927,31.6950791 724.100451,31.7266233 C723.684868,31.7542245 722.844368,31.8133699 722.844368,31.8133699 L722.844368,35.663515 L732.902811,35.663515 L732.902811,31.8124936 C732.902811,31.8124936 732.110758,31.7572913 731.647172,31.7261852 C731.161807,31.6937648 730.867565,31.4199436 730.867565,30.9169888 L730.867565,30.9169888 Z M744.133332,31.4457923 C743.297276,31.5066901 741.749174,31.367808 740.753552,29.6455822 L740.753552,27.1229222 L740.754442,27.1216079 L740.753552,27.1216079 L740.753552,24.2042073 C740.753552,22.9428773 741.935408,21.8362015 743.764418,21.7691701 C745.616541,21.7017006 747.25576,22.9476965 747.25576,26.4675038 C747.25576,31.2153444 745.143176,31.3721891 744.133332,31.4457923 L744.133332,31.4457923 Z M745.044059,17.288579 C743.523513,17.3542961 741.918963,17.9277873 740.753552,18.9262489 L740.753552,10.5170903 L738.600521,10.5170903 C738.600521,10.5170903 735.080288,11.7499428 732.354774,12.0794045 L732.26588,15.9299878 L733.989105,15.9321783 C734.518029,15.9321783 734.745599,16.1543021 734.752267,16.6414848 L734.752267,35.6503716 L739.676148,35.6451143 L740.379306,34.0854287 C740.529982,34.1686703 742.788798,36.2615405 746.396148,35.8427037 C750.937782,35.3147763 753.322829,31.7704347 753.322829,26.3930244 C753.322829,23.5720089 752.444548,16.9696321 745.044059,17.288579 L745.044059,17.288579 Z M782.885229,20.78429 C782.684772,16.488583 776.783492,16.2909936 773.698399,19.1926221 L773.135695,17.5291036 L766.002334,17.5291036 L766.002334,21.4659953 L767.497989,21.4638047 C768.027802,21.4638047 768.224259,21.6854903 768.231371,22.1722349 L768.231371,30.9016548 C768.231371,31.4046096 767.930462,31.6797451 767.445985,31.7104131 C767.030402,31.7375761 766.194347,31.7967215 766.194347,31.7967215 L766.194347,35.6477428 L776.238123,35.6477428 L776.238123,31.7967215 C776.238123,31.7967215 775.407401,31.7375761 774.992707,31.7104131 C774.507341,31.6797451 774.206877,31.4046096 774.206877,30.9016548 L774.204655,24.9827357 C774.204655,23.8734313 774.46245,22.0219618 776.448803,21.5483607 C776.694153,23.3998301 778.508495,23.9527299 779.393887,23.9527299 C781.629146,23.9527299 782.885229,22.3027929 782.885229,20.78429 L782.885229,20.78429 Z M762.173192,30.9016548 L762.178526,10.5170903 L760.003271,10.5170903 C760.003271,10.5170903 756.389254,11.8055833 753.78597,12.0794045 L753.78597,15.9299878 L755.42919,15.9299878 C755.958114,15.9299878 756.179462,16.1521115 756.186574,16.6388561 L756.186574,30.9016548 C756.186574,31.4046096 755.887443,31.6797451 755.402522,31.7104131 C754.987383,31.7375761 754.057099,31.7971596 754.057099,31.7971596 L754.057099,35.6477428 L764.303555,35.6477428 L764.303555,31.7971596 C764.303555,31.7971596 763.372382,31.7375761 762.957688,31.7104131 C762.472323,31.6797451 762.173192,31.4046096 762.173192,30.9016548 L762.173192,30.9016548 Z M781.893608,28.9240086 C779.904143,28.9240086 778.292481,30.4806273 778.292481,32.4000044 C778.292481,34.3180671 779.904143,35.875124 781.893608,35.875124 C783.883517,35.875124 785.49518,34.3180671 785.49518,32.4000044 C785.49518,30.4806273 783.883517,28.9240086 781.893608,28.9240086 L781.893608,28.9240086 Z" id="company_color4"></path>
                        </g>
                    </g>
                </g>
            </g>
        </g>
    </g>
</svg>