<svg id="Layer_1" data-name="Layer 1" xmlns="http://www.w3.org/2000/svg" viewBox="0 0 619.99 360"><defs><style>.cls-1{fill:#43a047;}.cls-2{fill:#434343;}</style></defs><title>Plivo-Logo</title><path class="cls-1" d="M170.6,228.34H94.49a30.54,30.54,0,0,1-7.26-60.22l7.44-1.81,2.45-7.25a38.87,38.87,0,0,1,75.38,7.54l1,8,7.38,3.13a26.37,26.37,0,0,1-10.28,50.66Zm15.71-63.47a52.77,52.77,0,0,0-97.45-20.79v-19.4a7,7,0,1,0-13.92,0v33.18a44.46,44.46,0,0,0,19.55,84.4H170.6a40.29,40.29,0,0,0,15.71-77.39Zm-66.4,7.4a3.52,3.52,0,0,1-3.51,3.51h-7.07a3.52,3.52,0,0,1-3.51-3.51V165.2a3.52,3.52,0,0,1,3.51-3.51h7.07a3.52,3.52,0,0,1,3.51,3.51Zm20,0a3.52,3.52,0,0,1-3.51,3.51h-7.07a3.52,3.52,0,0,1-3.51-3.51V165.2a3.52,3.52,0,0,1,3.51-3.51h7.07a3.52,3.52,0,0,1,3.51,3.51Zm20,0a3.52,3.52,0,0,1-3.51,3.51h-7.07a3.51,3.51,0,0,1-3.51-3.51V165.2a3.51,3.51,0,0,1,3.51-3.51h7.07A3.52,3.52,0,0,1,160,165.2Zm-40.06,20a3.52,3.52,0,0,1-3.51,3.51h-7.07a3.52,3.52,0,0,1-3.51-3.51v-7.07a3.52,3.52,0,0,1,3.51-3.51h7.07a3.52,3.52,0,0,1,3.51,3.51Zm20,0a3.52,3.52,0,0,1-3.51,3.51h-7.07a3.52,3.52,0,0,1-3.51-3.51v-7.07a3.52,3.52,0,0,1,3.51-3.51h7.07a3.52,3.52,0,0,1,3.51,3.51Zm20,0a3.52,3.52,0,0,1-3.51,3.51h-7.07a3.51,3.51,0,0,1-3.51-3.51v-7.07a3.51,3.51,0,0,1,3.51-3.51h7.07a3.52,3.52,0,0,1,3.51,3.51Zm-40.06,20a3.51,3.51,0,0,1-3.51,3.51h-7.07a3.51,3.51,0,0,1-3.51-3.51v-7.07a3.52,3.52,0,0,1,3.51-3.51h7.07a3.52,3.52,0,0,1,3.51,3.51Zm20,0a3.51,3.51,0,0,1-3.51,3.51h-7.07a3.51,3.51,0,0,1-3.51-3.51v-7.07a3.52,3.52,0,0,1,3.51-3.51h7.07a3.52,3.52,0,0,1,3.51,3.51Zm20,0a3.51,3.51,0,0,1-3.51,3.51h-7.07a3.51,3.51,0,0,1-3.51-3.51v-7.07a3.51,3.51,0,0,1,3.51-3.51h7.07a3.52,3.52,0,0,1,3.51,3.51Z"/><path class="cls-2" d="M360.16,223.12c-10.65,0-23.35-4.53-23.35-26.12V110.19c0-3.3,1.89-5.19,5.19-5.19h12.32c3.29,0,5.18,1.89,5.18,5.19v85.73c0,7.51,1.84,9.88,2.3,10.07h1c3.35,0,5.19,1.84,5.19,5.18v6.78c0,3.34-1.84,5.18-5.19,5.18Z"/><path class="cls-2" d="M383.36,223.12c-3.3,0-5.19-1.89-5.19-5.18V144.05c0-3.29,1.89-5.18,5.19-5.18h12.32c3.34,0,5.18,1.83,5.18,5.18v73.89c0,3.34-1.84,5.18-5.18,5.18Zm0-95.44c-3.3,0-5.19-1.89-5.19-5.18V110.19c0-3.3,1.89-5.19,5.19-5.19h12.32c3.29,0,5.18,1.89,5.18,5.19V122.5c0,3.35-1.84,5.18-5.18,5.18Z"/><path class="cls-2" d="M445.47,223.12a6.45,6.45,0,0,1-6.19-3.93l-27.65-74.71a3.84,3.84,0,0,1-.06-3.89c.7-1.15,2-1.72,3.89-1.72h14.16a5.82,5.82,0,0,1,6,4.4l14.76,51.61,14.76-51.56c.45-2,1.89-4.45,6-4.45h14.16a4.13,4.13,0,0,1,3.81,1.78,3.94,3.94,0,0,1-.08,4L461.61,219c-1.42,2.85-3.44,4.14-6.29,4.14Z"/><path class="cls-2" d="M532.38,223c-25.31,0-37.62-13.7-37.62-41.88,0-28.48,12.31-42.32,37.62-42.32,25,0,37.61,14.19,37.61,42.17,0,28.28-12.3,42-37.61,42Zm0-66.93c-11.17,0-15.94,7.45-15.94,24.9s4.77,24.76,15.94,24.76,15.93-7.4,15.93-24.76-4.77-24.9-15.93-24.9Z"/><path class="cls-2" d="M292.93,138.84c-8.72,0-15.95,2.06-21.66,6v-1c0-3.19-1.82-5-5-5H254.37c-3.23,0-5,1.78-5,5V250c0,3.18,1.83,5,5,5h11.9c3.24,0,5-1.78,5-5V216.47c5.11,5,12.21,7.57,21.18,7.57,12.71,0,34-5.56,34-42.82C326.52,144.35,305.48,138.84,292.93,138.84Zm-3,68.62c-8,0-18.65-2.72-18.65-26.24,0-22.86,9.88-25.79,18.5-25.79,7.79,0,14.78,2,14.78,25.79C304.58,205.44,297.35,207.46,290,207.46Z"/></svg>